# xmcd
#
# Track frame offsets:
#	150
#	3924
#	22657
#	39007
#	55874
#	73005
#	91210
#	109073
#	127305
#	146143
#	160119
#	173844
#	188558
#	210761
#
# Disc length: 3063 seconds
#
# Revision: 0
# Processed by: cddbd v1.5.2PL0 Copyright (c) Steve Scherf et al.
# Submitted via: dBpowerAMP V4.0
#
DISCID=aa0bf50e
DTITLE=Gangsta NIP - Psycho Thug
DYEAR=1999
DGENRE=Rap
TTITLE0=Intro
TTITLE1=KeepStriving
TTITLE2=We Finna come up
TTITLE3=Lil Mama´s
TTITLE4=Snitch Niggas
TTITLE5=Keep it Real
TTITLE6=Pimp Niggas
TTITLE7=Psycho Thug
TTITLE8=Candy Man Chant
TTITLE9=Do you like Scarry Movies
TTITLE10=Graveyard
TTITLE11=Insect Warground
TTITLE12=Mood Swings
TTITLE13=Psych Ward
EXTD=
EXTT0=
EXTT1=
EXTT2=
EXTT3=
EXTT4=
EXTT5=
EXTT6=
EXTT7=
EXTT8=
EXTT9=
EXTT10=
EXTT11=
EXTT12=
EXTT13=
PLAYORDER=
